<svg class="svg-icon" style="width: 1em; height: 1em;vertical-align: middle;fill: currentColor;overflow: hidden;" viewBox="0 0 1024 1024" version="1.1" xmlns="http://www.w3.org/2000/svg"><path d="M280.48 80.16c-55.36 0-70.176 27.04-186.688 143.52a104.112 104.112 0 0 0 0 147.088l96.16 96.16 260.24-260.224C349.216 105.744 334.624 80.16 280.48 80.16z m-90.512 273.632c-70-69.984-73.024-40.16 73.536-186.672a24.16 24.16 0 0 1 33.952 0l39.584 39.584-147.072 147.088z m624.832 217.504l-319.36-319.328-56.56 56.56 306.08 306.08 55.44 164.624-37.888 37.888-164.64-55.44-306.08-306.064-56.56 56.56L554.544 831.52l392.384 132.144-132.128-392.352z m-129.968 73.696l-291.216-291.2-56.576 56.56 291.232 291.2c37.36 37.36 94.016-19.152 56.56-56.56z" fill="#565D64" /></svg>